<svg width="256" height="73" viewBox="0 0 256 73" fill="none" xmlns="http://www.w3.org/2000/svg">
<path d="M13.5635 0.450996C8.34002 2.639 2.59852 8.8125 0.785022 16.5675C-1.51198 26.39 8.04502 30.545 8.82952 29.1845C9.75202 27.584 7.11702 27.043 6.57452 21.946C5.87352 15.363 8.93402 8.0075 12.786 4.78C13.501 4.18 13.4675 5.015 13.4675 6.5585C13.4675 9.319 13.315 34.101 13.315 39.273C13.315 46.271 13.026 48.481 12.5065 50.665C11.981 52.8775 11.135 54.373 11.7755 54.949C12.4915 55.593 15.5485 54.0605 17.318 51.591C19.44 48.629 20.183 45.071 20.3165 41.2085C20.4775 36.5515 20.4705 29.1615 20.4775 24.9465C20.4835 21.081 20.5425 9.7615 20.4095 2.9565C20.377 1.2865 15.748 -0.464504 13.5635 0.450996" fill="#343433"/>
<path d="M199.035 33.2025C198.867 36.841 198.061 39.6845 197.062 41.6905C195.127 45.574 191.112 46.7795 189.407 41.1975C188.478 38.1545 188.434 33.0725 189.102 28.826C189.782 24.5005 191.681 21.2335 194.824 21.528C197.925 21.8195 199.377 25.815 199.035 33.203V33.2025ZM146.76 55.7755C146.718 61.8205 145.767 67.1205 143.727 68.6605C140.833 70.8435 136.943 69.2055 137.749 64.7945C138.461 60.891 141.832 56.9045 146.769 52.0335C146.769 52.0335 146.779 53.1445 146.76 55.7755ZM145.97 33.167C145.793 36.481 144.934 39.8095 143.997 41.6905C142.062 45.574 138.018 46.788 136.342 41.1975C135.196 37.3775 135.47 32.4345 136.037 29.3195C136.773 25.278 138.557 21.5285 141.759 21.5285C144.873 21.5285 146.409 24.945 145.97 33.167ZM115.688 33.117C115.498 36.626 114.813 39.5595 113.715 41.6905C111.727 45.5475 107.794 46.7705 106.06 41.1975C104.809 37.179 105.235 31.7 105.755 28.74C106.527 24.3475 108.46 21.2335 111.477 21.5285C114.577 21.8315 116.083 25.815 115.688 33.117V33.117ZM254.464 37.216C253.707 37.216 253.361 37.997 253.074 39.311C252.083 43.883 251.039 44.9145 249.695 44.9145C248.192 44.9145 246.842 42.6515 246.495 38.1205C246.222 34.5575 246.266 27.9985 246.615 21.474C246.686 20.1335 246.316 18.807 242.721 17.501C241.174 16.939 238.925 16.1115 237.805 18.8145C234.641 26.4515 233.403 32.5145 233.112 34.9765C233.097 35.104 232.94 35.1305 232.913 34.8325C232.727 32.86 232.313 29.275 232.261 21.744C232.251 20.2745 231.94 19.024 230.318 18C229.265 17.335 226.07 16.16 224.919 17.5585C223.922 18.7015 222.767 21.7785 221.568 25.4265C220.593 28.3915 219.914 30.3965 219.914 30.3965C219.914 30.3965 219.927 22.3975 219.938 19.363C219.943 18.2185 219.158 17.837 218.921 17.768C217.856 17.459 215.756 16.9425 214.865 16.9425C213.765 16.9425 213.496 17.5565 213.496 18.4525C213.496 18.57 213.323 28.984 213.323 36.266C213.323 36.5825 213.323 36.9275 213.324 37.2945C212.716 40.6415 210.744 45.1845 208.599 45.1845C206.451 45.1845 205.438 43.2855 205.438 34.604C205.438 29.5395 205.59 27.337 205.664 23.674C205.708 21.564 205.792 19.944 205.787 19.5765C205.771 18.449 203.822 17.8805 202.914 17.6705C202.003 17.459 201.211 17.3765 200.592 17.412C199.717 17.462 199.097 18.0355 199.097 18.8255C199.097 19.2495 199.102 20.0545 199.102 20.0545C197.975 18.2825 196.161 17.0495 194.955 16.692C191.705 15.727 188.314 16.582 185.756 20.1615C183.723 23.005 182.497 26.2265 182.015 30.854C181.662 34.2375 181.777 37.668 182.404 40.5695C181.647 43.8435 180.241 45.1845 178.702 45.1845C176.467 45.1845 174.847 41.5375 175.035 35.2285C175.159 31.079 175.989 28.167 176.897 23.954C177.284 22.158 176.969 21.218 176.181 20.317C175.457 19.4905 173.916 19.068 171.701 19.587C170.123 19.9575 167.866 20.356 165.802 20.662C165.802 20.662 165.927 20.1645 166.029 19.2885C166.566 14.6935 161.572 15.066 159.979 16.5335C159.028 17.41 158.381 18.4435 158.135 20.3015C157.745 23.2505 160.15 24.6415 160.15 24.6415C159.362 28.2535 157.427 32.9715 155.43 36.383C154.361 38.2105 153.543 39.565 152.486 41.0045C152.452 35.2276 152.489 29.4505 152.599 23.6745C152.643 21.5645 152.727 19.9875 152.723 19.6195C152.711 18.7955 152.229 18.4835 151.228 18.0895C150.342 17.7405 149.295 17.4995 148.208 17.4145C146.837 17.3085 146.011 18.035 146.033 18.895C146.037 19.0575 146.037 20.0545 146.037 20.0545C144.91 18.2825 143.096 17.0495 141.89 16.692C138.64 15.727 135.249 16.582 132.691 20.1615C130.658 23.005 129.327 26.996 128.95 30.819C128.599 34.3815 128.663 37.409 129.142 39.96C128.626 42.514 127.14 45.185 125.46 45.185C123.312 45.185 122.09 43.2855 122.09 34.604C122.09 29.5395 122.242 27.337 122.317 23.674C122.361 21.5645 122.444 19.944 122.44 19.5765C122.424 18.449 120.474 17.881 119.567 17.6705C118.618 17.4505 117.798 17.3705 117.169 17.417C116.339 17.4785 115.755 18.222 115.755 18.7765V20.0545C114.627 18.2825 112.814 17.0495 111.607 16.692C108.357 15.727 104.985 16.596 102.408 20.1615C100.728 22.486 99.3676 25.063 98.6676 30.768C98.4651 32.4165 98.3756 33.961 98.3876 35.4035C97.7176 39.5015 94.7576 44.2245 92.3371 44.2245C90.9206 44.2245 89.5711 41.4765 89.5711 35.621C89.5711 27.821 90.0541 16.715 90.1361 15.645C90.1361 15.645 93.1946 15.593 93.7866 15.586C95.3126 15.569 96.6941 15.6055 98.7266 15.501C99.7456 15.4495 100.728 11.791 99.6756 11.3385C99.1986 11.1335 95.8291 10.9545 94.4931 10.926C93.3701 10.901 90.2431 10.669 90.2431 10.669C90.2431 10.669 90.5236 3.2975 90.5891 2.519C90.6441 1.8695 89.8041 1.53549 89.3231 1.33299C88.1521 0.837995 87.1046 0.600495 85.8631 0.344495C84.1471 -0.00950511 83.3691 0.336995 83.2171 1.78449C82.9881 3.98199 82.8696 10.4185 82.8696 10.4185C81.6106 10.4185 77.3096 10.1725 76.0506 10.1725C74.8806 10.1725 73.6176 15.2045 75.2356 15.2665C77.0966 15.3385 80.3401 15.4015 82.4901 15.4655C82.4901 15.4655 82.3941 26.7545 82.3941 30.2405C82.3941 30.6105 82.3961 30.968 82.3981 31.3145C81.2146 37.482 77.0466 40.814 77.0466 40.814C77.9416 36.7335 76.1131 33.669 72.8196 31.075C71.6061 30.1195 69.2106 28.31 66.5306 26.327C66.5306 26.327 68.0826 24.797 69.4596 21.719C70.4346 19.538 70.4771 17.0435 68.0826 16.493C64.1266 15.583 60.8651 18.4885 59.8921 21.5905C59.1381 23.9935 59.5401 25.776 61.0171 27.628C61.1246 27.7635 61.2421 27.902 61.3621 28.041C60.4696 29.762 59.2426 32.0795 58.2036 33.8765C55.3196 38.8665 53.1411 42.8125 51.4946 42.8125C50.1786 42.8125 50.1961 38.8055 50.1961 35.054C50.1961 31.82 50.4351 26.9575 50.6261 21.924C50.6891 20.259 49.8561 19.3105 48.4611 18.4515C47.6131 17.9295 45.8036 16.9035 44.7556 16.9035C43.1866 16.9035 38.6606 17.117 34.3846 29.487C33.8456 31.046 32.7866 33.887 32.7866 33.887L32.8781 19.0115C32.8781 18.6625 32.6921 18.3255 32.2666 18.095C31.5461 17.7035 29.6216 16.9035 27.9101 16.9035C27.0951 16.9035 26.6876 17.2825 26.6876 18.0385L26.5386 41.3115C26.5386 43.08 26.5846 45.143 26.7596 46.045C26.9336 46.948 27.2161 47.683 27.5651 48.12C27.9146 48.5565 28.3181 48.89 28.9836 49.027C29.6031 49.1545 32.9951 49.59 33.1716 48.294C33.3826 46.74 33.3911 45.06 35.1721 38.793C37.9451 29.036 41.5601 24.276 43.2601 22.585C43.5576 22.29 43.8966 22.272 43.8801 22.7555C43.8081 24.8945 43.5526 30.2405 43.3811 34.7805C42.9206 46.933 45.1311 49.1855 48.2906 49.1855C50.7076 49.1855 54.1146 46.784 57.7666 40.705C59.8015 37.3173 61.827 33.9239 63.8431 30.525C64.9496 31.5495 66.1921 32.652 67.4331 33.83C70.3181 36.568 71.2651 39.17 70.6366 41.638C70.1566 43.5245 68.3461 45.469 65.1246 43.5795C64.1856 43.028 63.7846 42.6015 62.8406 41.98C62.3336 41.6465 61.5591 41.5465 61.0946 41.8965C59.8886 42.8055 59.1986 43.9625 58.8046 45.3945C58.4216 46.788 59.8171 47.5245 61.2641 48.169C62.5096 48.7235 65.1871 49.226 66.8941 49.283C73.5466 49.5055 78.8761 46.071 82.5861 37.2115C83.2501 44.863 86.0761 49.1925 90.9866 49.1925C94.2696 49.1925 97.5611 44.949 99.0006 40.7745C99.4136 42.476 100.026 43.956 100.816 45.2075C104.599 51.2025 111.939 49.9125 115.626 44.8215C116.766 43.2485 116.94 42.6835 116.94 42.6835C117.478 47.49 121.349 49.1695 123.565 49.1695C126.047 49.1695 128.61 47.996 130.406 43.952C130.617 44.391 130.847 44.8105 131.098 45.2075C134.881 51.2025 142.222 49.9125 145.909 44.8215C146.083 44.5825 146.234 44.3665 146.365 44.1715L146.473 47.329L143.079 50.4425C137.389 55.6575 133.067 59.6125 132.749 64.219C132.344 70.0925 137.105 72.2755 140.712 72.5615C144.535 72.865 147.816 70.751 149.829 67.7925C151.601 65.188 152.761 59.583 152.675 54.0475C152.642 51.8305 152.585 49.012 152.542 45.9905C154.539 43.671 156.79 40.739 158.862 37.308C161.12 33.5685 163.54 28.5465 164.779 24.638C164.779 24.638 166.881 24.6565 169.125 24.5095C169.843 24.4625 170.049 24.6095 169.916 25.135C169.756 25.771 167.081 36.0875 169.523 42.96C171.193 47.665 174.96 49.178 177.193 49.178C179.807 49.178 182.308 47.204 183.648 44.273C183.81 44.5995 183.978 44.9155 184.163 45.208C187.946 51.203 195.261 49.9045 198.974 44.8215C199.812 43.6745 200.287 42.6835 200.287 42.6835C201.084 47.6585 204.953 49.195 207.169 49.195C209.477 49.195 211.668 48.2485 213.445 44.043C213.52 45.895 213.636 47.409 213.821 47.886C213.933 48.1785 214.589 48.5445 215.066 48.7215C217.178 49.5045 219.331 49.1345 220.128 48.9735C220.68 48.8615 221.111 48.4185 221.17 47.2755C221.325 44.273 221.23 39.2285 222.14 35.479C223.667 29.1875 225.093 26.747 225.769 25.539C226.147 24.8615 226.574 24.75 226.589 25.4665C226.621 26.9165 226.693 31.173 227.285 36.893C227.72 41.099 228.3 43.5855 228.747 44.373C230.021 46.623 231.593 46.7295 232.874 46.7295C233.689 46.7295 235.393 46.5045 235.241 45.0725C235.166 44.3745 235.296 40.0605 236.803 33.862C237.786 29.814 239.426 26.157 240.018 24.8195C240.236 24.3265 240.338 24.715 240.334 24.791C240.209 27.5785 239.93 36.6965 241.065 41.6835C242.605 48.439 247.058 49.195 248.61 49.195C251.923 49.195 254.633 46.675 255.545 40.044C255.765 38.448 255.44 37.216 254.464 37.216Z" fill="#343433"/>
</svg>
